<svg version="1.1" id="Layer_1" xmlns="http://www.w3.org/2000/svg" xmlns:xlink="http://www.w3.org/1999/xlink" x="0px" y="0px"
	 width="100%" viewBox="0 0 128 128" enable-background="new 0 0 128 128" xml:space="preserve">
<path fill="#FFFFFF" opacity="1.000000" stroke="none" 
	d="
M129.000000,28.000000 
	C129.000000,61.588573 129.000000,95.177147 129.000000,129.000000 
	C99.979523,129.000000 70.958420,129.000000 41.468658,128.605576 
	C40.152897,124.448524 41.802376,122.004730 44.212673,118.992775 
	C51.917038,109.365234 59.537685,99.674644 63.311947,87.448364 
	C68.188675,71.650772 62.773670,54.883919 49.191936,47.432964 
	C37.428299,40.979420 19.821972,42.053986 10.859695,51.936649 
	C6.712063,56.510227 4.234644,62.598465 1.000000,68.000000 
	C1.000000,45.725323 1.000000,23.450644 1.000000,1.000000 
	C34.020687,1.000000 67.041687,1.000000 100.429611,1.355694 
	C92.075691,4.192553 86.120300,13.392515 85.948753,21.002949 
	C85.741562,30.194141 91.400101,36.974880 95.099716,44.565044 
	C98.075249,50.669682 104.308372,55.069386 104.480247,62.730778 
	C104.497780,63.512180 106.832428,64.949524 107.920029,64.803436 
	C109.047913,64.651939 110.344208,63.108891 110.881920,61.875767 
	C111.560638,60.319286 111.085205,58.194202 111.905106,56.775150 
	C117.486107,47.115665 123.276917,37.577396 129.000000,28.000000 
M74.002274,89.391418 
	C74.925079,93.015060 77.415581,92.829643 79.385178,90.895454 
	C81.992607,88.334892 84.168404,85.261124 86.127007,82.154060 
	C86.799110,81.087852 86.776581,78.917519 86.100349,77.891792 
	C85.614914,77.155464 83.186264,76.887733 82.194382,77.438049 
	C77.838402,79.854912 75.203781,83.740891 74.002274,89.391418 
M107.998657,74.229309 
	C108.045090,70.516975 107.003983,68.970078 103.140602,71.261894 
	C100.456871,72.853920 97.326500,73.683296 94.597527,75.213425 
	C93.464027,75.848984 92.369400,77.357925 92.205688,78.595215 
	C92.117859,79.258987 94.003609,80.827744 95.063980,80.890747 
	C100.312340,81.202591 104.978416,79.841141 107.998657,74.229309 
M47.038982,125.304329 
	C48.608421,125.763824 50.423233,126.959816 51.698082,126.535095 
	C54.688427,125.538818 57.629154,124.052177 60.171165,122.191772 
	C61.496525,121.221802 61.935177,119.040222 62.774330,117.405899 
	C60.734600,117.235420 58.519810,116.484451 56.697254,117.034103 
	C54.132771,117.807510 51.737061,119.372696 49.512730,120.944054 
	C48.398037,121.731514 47.822372,123.281998 47.038982,125.304329 
M66.035133,105.635338 
	C65.670326,106.857346 65.070999,108.067459 65.008255,109.304779 
	C64.948441,110.484726 65.165359,112.510948 65.761139,112.716827 
	C66.962959,113.132164 69.416763,113.017937 69.758980,112.329361 
	C72.118179,107.582428 76.433411,103.359970 74.627274,97.263161 
	C70.253525,96.997757 70.286530,97.012016 68.682495,100.724434 
	C68.049049,102.190491 67.232048,103.577248 66.035133,105.635338 
z"/>
<path fill="#000000" opacity="1.000000" stroke="none" 
	d="
M1.000000,68.466858 
	C4.234644,62.598465 6.712063,56.510227 10.859695,51.936649 
	C19.821972,42.053986 37.428299,40.979420 49.191936,47.432964 
	C62.773670,54.883919 68.188675,71.650772 63.311947,87.448364 
	C59.537685,99.674644 51.917038,109.365234 44.212673,118.992775 
	C41.802376,122.004730 40.152897,124.448524 41.000000,128.605576 
	C37.638714,129.000000 34.277424,129.000000 30.381115,128.660004 
	C28.533758,126.683495 27.247381,125.025345 25.903969,123.414772 
	C22.576241,119.425224 19.192736,115.481949 15.885305,111.475769 
	C9.130157,103.293488 4.702670,93.840897 1.000000,84.000000 
	C1.000000,78.977905 1.000000,73.955818 1.000000,68.466858 
M28.986294,117.476097 
	C30.011301,118.978386 31.036308,120.480682 32.305977,122.341553 
	C42.192978,111.881393 49.911678,101.816727 55.461449,90.117241 
	C61.284027,77.842667 61.018436,63.878689 47.447578,54.040581 
	C37.607666,46.907204 21.646599,48.336735 13.390982,58.355083 
	C5.299699,68.174004 4.540322,79.389503 10.952800,90.357185 
	C16.305206,99.511765 22.587919,108.122406 28.986294,117.476097 
z"/>
<path fill="#000000" opacity="1.000000" stroke="none" 
	d="
M129.000000,27.539364 
	C123.276917,37.577396 117.486107,47.115665 111.905106,56.775150 
	C111.085205,58.194202 111.560638,60.319286 110.881920,61.875767 
	C110.344208,63.108891 109.047913,64.651939 107.920029,64.803436 
	C106.832428,64.949524 104.497780,63.512180 104.480247,62.730778 
	C104.308372,55.069386 98.075249,50.669682 95.099716,44.565044 
	C91.400101,36.974880 85.741562,30.194141 85.948753,21.002949 
	C86.120300,13.392515 92.075691,4.192553 100.898270,1.355694 
	C105.024544,1.000000 109.049088,1.000000 113.641220,1.358145 
	C122.086121,3.425916 125.929001,9.313307 129.000000,16.000000 
	C129.000000,19.692909 129.000000,23.385818 129.000000,27.539364 
M92.925476,18.551081 
	C92.801193,20.399967 91.973389,22.583176 92.667236,24.043285 
	C97.050499,33.267273 101.771095,42.330956 106.380325,51.447559 
	C107.066116,51.443958 107.751907,51.440353 108.437706,51.436749 
	C113.251320,42.735428 118.293259,34.147137 122.700676,25.244715 
	C123.671364,23.284061 122.852226,20.054729 122.057739,17.676744 
	C119.942146,11.344539 115.410858,7.453006 108.635353,7.061586 
	C100.850082,6.611833 95.884300,10.775762 92.925476,18.551081 
z"/>
<path fill="#FFFFFF" opacity="1.000000" stroke="none" 
	d="
M1.000000,84.468658 
	C4.702670,93.840897 9.130157,103.293488 15.885305,111.475769 
	C19.192736,115.481949 22.576241,119.425224 25.903969,123.414772 
	C27.247381,125.025345 28.533758,126.683495 29.923046,128.660004 
	C20.390850,129.000000 10.781698,129.000000 1.000000,129.000000 
	C1.000000,114.312820 1.000000,99.625069 1.000000,84.468658 
z"/>
<path fill="#FFFFFF" opacity="1.000000" stroke="none" 
	d="
M129.000000,15.527336 
	C125.929001,9.313307 122.086121,3.425916 114.104401,1.358145 
	C118.924522,1.000000 123.849037,1.000000 129.000000,1.000000 
	C129.000000,5.683316 129.000000,10.368995 129.000000,15.527336 
z"/>
<path fill="#000000" opacity="1.000000" stroke="none" 
	d="
M74.001274,88.986359 
	C75.203781,83.740891 77.838402,79.854912 82.194382,77.438049 
	C83.186264,76.887733 85.614914,77.155464 86.100349,77.891792 
	C86.776581,78.917519 86.799110,81.087852 86.127007,82.154060 
	C84.168404,85.261124 81.992607,88.334892 79.385178,90.895454 
	C77.415581,92.829643 74.925079,93.015060 74.001274,88.986359 
z"/>
<path fill="#000000" opacity="1.000000" stroke="none" 
	d="
M107.990112,74.627991 
	C104.978416,79.841141 100.312340,81.202591 95.063980,80.890747 
	C94.003609,80.827744 92.117859,79.258987 92.205688,78.595215 
	C92.369400,77.357925 93.464027,75.848984 94.597527,75.213425 
	C97.326500,73.683296 100.456871,72.853920 103.140602,71.261894 
	C107.003983,68.970078 108.045090,70.516975 107.990112,74.627991 
z"/>
<path fill="#000000" opacity="1.000000" stroke="none" 
	d="
M47.020954,124.895859 
	C47.822372,123.281998 48.398037,121.731514 49.512730,120.944054 
	C51.737061,119.372696 54.132771,117.807510 56.697254,117.034103 
	C58.519810,116.484451 60.734600,117.235420 62.774330,117.405899 
	C61.935177,119.040222 61.496525,121.221802 60.171165,122.191772 
	C57.629154,124.052177 54.688427,125.538818 51.698082,126.535095 
	C50.423233,126.959816 48.608421,125.763824 47.020954,124.895859 
z"/>
<path fill="#000000" opacity="1.000000" stroke="none" 
	d="
M66.266876,105.317726 
	C67.232048,103.577248 68.049049,102.190491 68.682495,100.724434 
	C70.286530,97.012016 70.253525,96.997757 74.627274,97.263161 
	C76.433411,103.359970 72.118179,107.582428 69.758980,112.329361 
	C69.416763,113.017937 66.962959,113.132164 65.761139,112.716827 
	C65.165359,112.510948 64.948441,110.484726 65.008255,109.304779 
	C65.070999,108.067459 65.670326,106.857346 66.266876,105.317726 
z"/>
<path fill="#FFFFFF" opacity="1.000000" stroke="none" 
	d="
M28.722462,117.225021 
	C22.587919,108.122406 16.305206,99.511765 10.952800,90.357185 
	C4.540322,79.389503 5.299699,68.174004 13.390982,58.355083 
	C21.646599,48.336735 37.607666,46.907204 47.447578,54.040581 
	C61.018436,63.878689 61.284027,77.842667 55.461449,90.117241 
	C49.911678,101.816727 42.192978,111.881393 32.305977,122.341553 
	C31.036308,120.480682 30.011301,118.978386 28.722462,117.225021 
M26.148920,90.678070 
	C28.851822,91.118713 31.604998,92.130089 34.248573,91.897217 
	C43.672935,91.067070 50.703831,84.827621 48.883533,72.207375 
	C47.705345,64.038940 40.587330,58.472328 31.652948,59.091366 
	C24.754107,59.569363 18.005287,65.656639 17.008795,71.402840 
	C15.495338,80.130081 18.075804,85.750977 26.148920,90.678070 
z"/>
<path fill="#FFFFFF" opacity="1.000000" stroke="none" 
	d="
M92.960678,18.147331 
	C95.884300,10.775762 100.850082,6.611833 108.635353,7.061586 
	C115.410858,7.453006 119.942146,11.344539 122.057739,17.676744 
	C122.852226,20.054729 123.671364,23.284061 122.700676,25.244715 
	C118.293259,34.147137 113.251320,42.735428 108.437706,51.436749 
	C107.751907,51.440353 107.066116,51.443958 106.380325,51.447559 
	C101.771095,42.330956 97.050499,33.267273 92.667236,24.043285 
	C91.973389,22.583176 92.801193,20.399967 92.960678,18.147331 
M109.245102,27.998156 
	C113.708305,27.258892 113.427200,23.714052 112.805550,20.815428 
	C112.485458,19.322897 110.326668,17.498331 108.719795,17.163868 
	C105.656769,16.526316 102.330467,16.684992 101.989296,21.226250 
	C101.641449,25.856236 103.162720,27.506786 109.245102,27.998156 
z"/>
<path fill="#000000" opacity="1.000000" stroke="none" 
	d="
M25.869577,90.386703 
	C18.075804,85.750977 15.495338,80.130081 17.008795,71.402840 
	C18.005287,65.656639 24.754107,59.569363 31.652948,59.091366 
	C40.587330,58.472328 47.705345,64.038940 48.883533,72.207375 
	C50.703831,84.827621 43.672935,91.067070 34.248573,91.897217 
	C31.604998,92.130089 28.851822,91.118713 25.869577,90.386703 
M23.021158,73.940025 
	C23.014154,74.768860 22.947615,75.602196 23.010012,76.425774 
	C23.360659,81.053932 27.713882,85.371185 32.510513,85.883064 
	C35.853764,86.239845 41.289177,82.482910 42.652103,78.873245 
	C44.070446,75.116821 42.188889,70.345314 38.250481,67.711029 
	C32.530563,63.885151 27.150200,65.849838 23.021158,73.940025 
z"/>
<path fill="#000000" opacity="1.000000" stroke="none" 
	d="
M108.821899,27.999004 
	C103.162720,27.506786 101.641449,25.856236 101.989296,21.226250 
	C102.330467,16.684992 105.656769,16.526316 108.719795,17.163868 
	C110.326668,17.498331 112.485458,19.322897 112.805550,20.815428 
	C113.427200,23.714052 113.708305,27.258892 108.821899,27.999004 
z"/>
<path fill="#FFFFFF" opacity="1.000000" stroke="none" 
	d="
M23.157303,73.556381 
	C27.150200,65.849838 32.530563,63.885151 38.250481,67.711029 
	C42.188889,70.345314 44.070446,75.116821 42.652103,78.873245 
	C41.289177,82.482910 35.853764,86.239845 32.510513,85.883064 
	C27.713882,85.371185 23.360659,81.053932 23.010012,76.425774 
	C22.947615,75.602196 23.014154,74.768860 23.157303,73.556381 
z"/>
</svg>